<svg width="206" height="303" viewBox="0 0 206 303" fill="none" xmlns="http://www.w3.org/2000/svg">
<circle cx="100" cy="203" r="100" fill="#8F06FB"/>
<circle cx="100" cy="203" r="100" fill="url(#paint0_linear)"/>
<path d="M126.929 194V242.831L109 276.71L162.243 263.357L126.929 194Z" fill="#ED6262"/>
<rect x="123.975" y="255.134" width="14.1428" height="16.542" fill="#9E8686" fill-opacity="0.8"/>
<rect x="131.462" y="223.488" width="14.9747" height="15.8228" fill="#473C3C" fill-opacity="0.65"/>
<path d="M139.999 219.854L144.863 266.797" stroke="#FFFEFE" stroke-width="1.5"/>
<path d="M131.792 234.265L141.094 275.049" stroke="black" stroke-width="1.5"/>
<path d="M114.823 264.483L156.42 267.36" stroke="black" stroke-width="2.5"/>
<path d="M109 273.114L146.437 227.803" stroke="#FDF8F8" stroke-width="2.5"/>
<path d="M121.479 250.818L163.907 253.695" stroke="black" stroke-width="2.5"/>
<path d="M128.134 231.399L151.428 240.749" stroke="black" stroke-width="1.5"/>
<path d="M131.462 214.857L151.428 234.276" stroke="black" stroke-width="1.5"/>
<path d="M89.0959 198.78V248.191L103.78 281.49L48.8732 276.119L89.0959 198.78Z" fill="#ED6262"/>
<rect x="55.2392" y="234.495" width="23.8727" height="25.6903" fill="#806565" fill-opacity="0.65"/>
<path d="M55.2392 254.546L87.0694 244.521" stroke="black" stroke-width="2"/>
<path d="M60.0139 247.027L82.295 241.388" stroke="black"/>
<path d="M66.3798 237.002L79.9077 228.856" stroke="black" stroke-width="1.5"/>
<path d="M48.8732 266.451L93.4356 255.173" stroke="#FFFDFD" stroke-width="1.5"/>
<path d="M60.0139 276.477L100.597 265.825" stroke="black" stroke-width="1.5"/>
<rect x="72.746" y="253.92" width="19.0981" height="27.57" fill="#453838" fill-opacity="0.65"/>
<path d="M79.9077 215.071L66.3798 279.61" stroke="#FFF0F0" stroke-width="2.5"/>
<path d="M71.5896 227.641L61.7324 281.359" stroke="black" stroke-width="1.5"/>
<path d="M87.343 246.977L75.4311 281.324" stroke="black" stroke-width="1.5"/>
<path d="M58.3079 251.19L57.623 278.364" stroke="black" stroke-width="2.5"/>
<path d="M125 205.862C125 212.794 136 210.448 136 223C141.412 223 144 214.484 144 207.552C144 200.62 139.612 195 134.2 195C128.788 195 125 198.93 125 205.862Z" fill="#1C1514"/>
<rect x="81.8289" y="222.956" width="46.4689" height="29.9029" rx="14.9514" fill="#B08871"/>
<rect x="81.0671" y="168.24" width="46.4689" height="78.8927" rx="23.2345" fill="#DBB39C"/>
<rect x="79" y="175" width="46" height="39" rx="19.5" fill="#B08871"/>
<ellipse cx="105.063" cy="108.117" rx="94.8423" ry="95.1166" fill="#DBB39C"/>
<rect x="3.36499" y="107.79" width="12.9504" height="30.7249" rx="6.47518" fill="#DBB39C"/>
<rect x="193.05" y="107.79" width="12.9504" height="30.7249" rx="6.47518" fill="#DBB39C"/>
<ellipse cx="104.682" cy="150.935" rx="9.90322" ry="3.26861" fill="#B08871"/>
<path d="M117 15.935C103.29 40.3724 14.2061 55.8832 5.53796 116.854C5.53796 116.854 9.98289 138.283 4.89393 106.926C-14.1129 70.3442 25.9948 18.7147 60.8069 7.00199C99.916 -6.15649 143.255 0.596526 117 15.935Z" fill="#1C1514"/>
<path d="M104.5 27.4202C112.294 56.2846 193.04 47.9466 201.708 108.917C220.714 72.3347 172.546 13.6046 136.601 4.9742C99.916 -3.83381 78.2447 12.0817 104.5 27.4202Z" fill="#1C1514"/>
<path d="M120.68 189.924C118.721 192.927 111.865 193.927 104.682 198.78C96.5205 194.641 93.2557 193.355 88.685 189.924C88.685 186.059 95.667 184.782 104.682 184.782C113.698 184.782 120.68 186.357 120.68 189.924Z" fill="#1C1514"/>
<path d="M135.154 174.359C135.154 178.696 119.882 168.943 103.485 168.943C87.0877 168.943 71.156 179.774 72.8054 174.359C74.4549 168.943 87.0877 163.787 103.485 163.787C119.882 163.787 132.185 168.943 135.154 174.359Z" fill="#1C1514"/>
<rect x="9.57312" y="88.9146" width="90.6525" height="55.3521" rx="27.6761" stroke="black" stroke-width="10" stroke-linejoin="round"/>
<rect x="108.605" y="88.9146" width="90.6525" height="55.3521" rx="27.6761" stroke="black" stroke-width="10" stroke-linejoin="round"/>
<path d="M125.891 120.016C125.891 124.124 137.252 114.885 149.45 114.885C161.647 114.885 173.499 125.146 172.272 120.016C171.045 114.885 161.647 110 149.45 110C137.252 110 128.099 114.885 125.891 120.016Z" fill="#621B04"/>
<path d="M83.2307 121.845C83.2307 126.181 71.6837 116.429 59.2858 116.429C46.8879 116.429 34.842 127.26 36.0891 121.845C37.3363 116.429 46.8879 111.272 59.2858 111.272C71.6837 111.272 80.9859 116.429 83.2307 121.845Z" fill="#621B04"/>
<defs>
<linearGradient id="paint0_linear" x1="228.382" y1="144.734" x2="28.0777" y2="269.568" gradientUnits="userSpaceOnUse">
<stop stop-color="#0B76F3"/>
<stop offset="1" stop-color="white" stop-opacity="0"/>
</linearGradient>
</defs>
</svg>
